<svg xmlns="http://www.w3.org/2000/svg" width="736" height="736" viewBox="0 0 736 736" version="1.1"><path d="M 269.985 162.854 L 261.469 168.500 254.485 173.764 L 247.500 179.028 239.165 187.264 L 230.830 195.500 225.585 203.500 L 220.339 211.500 217.621 217.734 L 214.902 223.968 213.468 230.734 L 212.035 237.500 212.017 242.418 L 212 247.336 213.104 253.676 L 214.208 260.016 216.952 267.372 L 219.696 274.727 225.248 283.114 L 230.799 291.500 233.400 294.406 L 236 297.311 235.976 298.406 L 235.953 299.500 233.976 306.932 L 232 314.365 232 318.051 L 232 321.736 226.194 323.366 L 220.387 324.995 209.944 326.479 L 199.500 327.963 195.285 327.982 L 191.070 328 189.868 330.246 L 188.666 332.492 188.610 352.496 L 188.554 372.500 190.374 380.500 L 192.195 388.500 194.717 395 L 197.238 401.500 203.737 411.261 L 210.235 421.021 210.178 425.198 L 210.120 429.376 206.955 433.866 L 203.790 438.356 204.977 442.428 L 206.165 446.500 212.477 452.599 L 218.788 458.697 218.263 463.360 L 217.737 468.023 219.449 472.504 L 221.160 476.986 220.224 480.243 L 219.287 483.500 219.436 503 L 219.585 522.500 222.150 529.500 L 224.715 536.500 227.992 543 L 231.270 549.500 235.855 555.936 L 240.441 562.372 247.034 568.966 L 253.628 575.559 260.237 580.275 L 266.845 584.991 269.261 585.909 L 271.676 586.827 273.692 582.057 L 275.707 577.286 281.155 573.173 L 286.602 569.060 293.375 566.511 L 300.148 563.962 315.324 561.071 L 330.500 558.180 341.500 556.502 L 352.500 554.824 362.500 552.480 L 372.500 550.136 377.500 547.912 L 382.500 545.688 385.738 543.594 L 388.975 541.500 388.988 540.775 L 389 540.050 385.750 540.625 L 382.500 541.201 386.874 538.769 L 391.248 536.338 396.935 530.729 L 402.623 525.121 405.642 518.810 L 408.660 512.500 409.963 506.861 L 411.266 501.222 410.818 490.353 L 410.370 479.484 409.311 477.591 L 408.251 475.698 407.747 488.099 L 407.242 500.500 404.949 506.987 L 402.656 513.474 397.578 518.525 L 392.500 523.576 388 525.688 L 383.500 527.799 383.089 527.406 L 382.679 527.012 384.494 525.006 L 386.310 523 385.205 523 L 384.100 523 379.614 526.028 L 375.127 529.056 367.814 532.375 L 360.500 535.695 354 537.806 L 347.500 539.916 340.500 541.457 L 333.500 542.998 331.250 543.518 L 329 544.038 329 543.180 L 329 542.321 331.629 541.123 L 334.258 539.925 333.709 539.375 L 333.159 538.825 327.829 539.884 L 322.500 540.942 310 542.010 L 297.500 543.077 291.500 544.086 L 285.500 545.095 280.500 546.694 L 275.500 548.293 271.477 551.038 L 267.454 553.784 266.058 556.392 L 264.662 559 263.518 559 L 262.374 559 259.789 556.250 L 257.204 553.500 254.603 549.613 L 252.003 545.726 250.829 541.613 L 249.656 537.500 249.254 539.250 L 248.853 541 248.090 541 L 247.327 541 244.690 535.750 L 242.054 530.500 240.403 524 L 238.753 517.500 239.289 509.500 L 239.825 501.500 241.380 497.218 L 242.934 492.935 240.876 488.987 L 238.818 485.038 239.489 481.063 L 240.161 477.089 238.073 474.848 L 235.986 472.607 235.080 469.328 L 234.175 466.048 234.721 463.774 L 235.267 461.500 238.679 457.028 L 242.090 452.556 241.795 450.040 L 241.500 447.524 237.682 446.908 L 233.864 446.293 232.339 444.767 L 230.813 443.242 233.318 443.720 L 235.823 444.199 237.596 441.350 L 239.369 438.500 241.359 436.250 L 243.349 434 245.674 434 L 248 434 250 432 L 252 430 251.996 425.250 L 251.992 420.500 250.428 411.500 L 248.863 402.500 248.304 397.750 L 247.746 393 246.907 393 L 246.069 393 242.537 404.250 L 239.005 415.500 236.114 420.500 L 233.223 425.500 230.556 428.361 L 227.889 431.223 227.423 430.757 L 226.957 430.291 229.469 424.895 L 231.980 419.500 231.990 418.270 L 232 417.041 228.178 415.091 L 224.357 413.141 220.637 408.602 L 216.918 404.063 214.421 398.418 L 211.925 392.773 210.426 385.648 L 208.927 378.524 208.965 366.512 L 209.002 354.500 209.751 351.284 L 210.500 348.068 221 353.997 L 231.500 359.926 232.309 359.963 L 233.118 360 232.585 359.137 L 232.051 358.274 224.912 353.440 L 217.772 348.606 219.636 347.873 L 221.500 347.141 225.500 347.035 L 229.500 346.930 235.687 345.602 L 241.873 344.274 241.329 348.887 L 240.784 353.500 241.896 357.619 L 243.007 361.739 245.098 364.397 L 247.189 367.056 251.262 369.134 L 255.335 371.212 261.625 370.811 L 267.916 370.411 276.440 366.088 L 284.965 361.766 294.732 362.203 L 304.500 362.640 308.500 364.631 L 312.500 366.623 312.188 367.999 L 311.875 369.375 311.279 372.355 L 310.683 375.336 312.591 374.530 L 314.500 373.725 318.270 372.651 L 322.039 371.576 324.770 372.665 L 327.500 373.754 329.500 374.457 L 331.500 375.161 327.500 371.595 L 323.500 368.030 322.215 368.015 L 320.930 368 318.263 369.747 L 315.596 371.495 316.298 369.747 L 317 368 317.609 366.495 L 318.218 364.989 312.786 362.502 L 307.354 360.015 302.384 359.073 L 297.415 358.131 294.958 358.415 L 292.500 358.700 289.250 359.430 L 286 360.159 286 359.523 L 286 358.888 290.250 357.043 L 294.500 355.199 298.645 354.529 L 302.790 353.860 308.645 354.913 L 314.500 355.965 329.811 363.483 L 345.123 371 347.339 371 L 349.555 371 351.701 369.497 L 353.847 367.994 355.062 364.311 L 356.278 360.628 356.197 354.921 L 356.116 349.214 354.710 345.857 L 353.303 342.500 350.526 339.206 L 347.748 335.912 344.124 334.079 L 340.500 332.246 335.028 331.086 L 329.556 329.926 322.270 326.421 L 314.984 322.917 311.492 319.425 L 308 315.933 308 315.057 L 308 314.181 315.250 312.883 L 322.500 311.585 315 310.885 L 307.500 310.185 301 308.613 L 294.500 307.041 287 304.649 L 279.500 302.258 276.253 301.550 L 273.007 300.843 269.253 302.037 L 265.500 303.231 261.291 307.283 L 257.082 311.335 254.433 317.918 L 251.783 324.500 250.874 326.500 L 249.965 328.500 250.377 322 L 250.789 315.500 252.386 310.890 L 253.984 306.280 256.532 301.890 L 259.081 297.500 260.226 295.843 L 261.372 294.187 254.436 286.736 L 247.500 279.284 244.108 272.617 L 240.716 265.950 241.212 265.455 L 241.707 264.959 244.351 268.954 L 246.995 272.950 252.247 277.122 L 257.500 281.294 262.500 283.630 L 267.500 285.966 274.959 287.630 L 282.418 289.294 297.459 288.668 L 312.500 288.042 322.453 285.999 L 332.406 283.957 344.256 279.995 L 356.107 276.033 365.936 270.984 L 375.765 265.935 381.447 261.866 L 387.130 257.797 386.721 257.388 L 386.312 256.979 382.169 258.440 L 378.026 259.902 363.763 263.415 L 349.500 266.928 339.613 268.091 L 329.727 269.254 320.113 268.707 L 310.500 268.159 307 267.088 L 303.500 266.017 300 263.766 L 296.500 261.515 310.500 260.879 L 324.500 260.243 326 259.671 L 327.500 259.099 331.750 258.011 L 336 256.923 336 256.090 L 336 255.258 331.191 254.620 L 326.383 253.982 316.548 251.487 L 306.714 248.993 299.118 245.548 L 291.522 242.103 285.977 238.065 L 280.432 234.028 276.631 229.044 L 272.831 224.060 270.915 219.019 L 269 213.979 269 204.882 L 269 195.786 270.750 196.610 L 272.500 197.434 276.500 197.398 L 280.500 197.361 294 192.258 L 307.500 187.155 315.549 185.935 L 323.598 184.715 329.981 185.840 L 336.364 186.964 337.349 187.949 L 338.334 188.934 336.917 189.326 L 335.500 189.718 331.500 191.014 L 327.500 192.310 324.262 194.405 L 321.025 196.500 321.012 197.120 L 321 197.739 334.250 198.253 L 347.500 198.767 351.500 200.188 L 355.500 201.609 360 200.859 L 364.500 200.109 370 200.648 L 375.500 201.187 381.403 202.660 L 387.305 204.134 392.542 207.484 L 397.779 210.834 398.449 211.917 L 399.118 213 406.309 213.012 L 413.500 213.024 418.500 214.396 L 423.500 215.768 428.500 217.953 L 433.500 220.138 446.320 226.512 L 459.140 232.887 464.748 234.051 L 470.356 235.216 473.928 234.660 L 477.500 234.104 480 233.472 L 482.500 232.840 479.734 235.386 L 476.968 237.931 472.734 239.085 L 468.500 240.239 459.807 239.688 L 451.114 239.137 442.557 236.188 L 434 233.238 434 233.919 L 434 234.600 435.250 235.924 L 436.500 237.248 431.237 236.588 L 425.974 235.928 417.237 233.405 L 408.500 230.882 400.069 227.455 L 391.639 224.028 391.301 224.365 L 390.964 224.703 397.004 230.586 L 403.044 236.469 410.652 241.698 L 418.261 246.927 418.880 247.603 L 419.500 248.278 415.337 247.641 L 411.175 247.004 409.337 246.342 L 407.500 245.680 410 248.426 L 412.500 251.172 419.180 255.616 L 425.860 260.061 435.180 264.450 L 444.500 268.839 452.408 271.398 L 460.315 273.958 469.302 275.609 L 478.289 277.261 486.895 276.768 L 495.500 276.276 501 273.956 L 506.500 271.637 510.384 268.628 L 514.268 265.619 517.619 260.382 L 520.970 255.144 522.735 249.586 L 524.500 244.028 525.284 244.014 L 526.069 244 525.469 249.250 L 524.870 254.500 522.383 261.614 L 519.896 268.728 515.172 274.592 L 510.448 280.456 514.242 287.978 L 518.037 295.500 519.018 300.886 L 520 306.273 520 316.005 L 520 325.738 518.452 334.619 L 516.904 343.500 514.819 350.500 L 512.733 357.500 509.231 367 L 505.728 376.500 498.251 395.500 L 490.773 414.500 485.822 428 L 480.871 441.500 477.481 453.514 L 474.091 465.528 472.926 473.014 L 471.761 480.500 472.265 489.500 L 472.769 498.500 474.849 503.250 L 476.929 508 477.578 508 L 478.227 508 477.718 504.750 L 477.210 501.500 478.124 493.177 L 479.038 484.854 482.140 475.677 L 485.242 466.500 490.543 455.500 L 495.843 444.500 508.553 422.500 L 521.263 400.500 528.073 386.500 L 534.883 372.500 538.002 363.171 L 541.122 353.842 543.104 345.171 L 545.086 336.500 545.661 324 L 546.235 311.500 543.511 299 L 540.786 286.500 540.282 283.236 L 539.778 279.972 540.905 278.614 L 542.032 277.256 544.677 269.878 L 547.323 262.500 547.344 248 L 547.365 233.500 545.161 224.500 L 542.958 215.500 539.444 204.893 L 535.930 194.287 534.612 192.484 L 533.293 190.681 529.688 198.175 L 526.084 205.670 521.086 214.160 L 516.089 222.651 510.795 228.075 L 505.500 233.500 504.949 226.431 L 504.398 219.362 501.359 213.983 L 498.320 208.604 496.718 207.594 L 495.116 206.583 492.886 209.417 L 490.657 212.251 486.579 214.104 L 482.500 215.956 478 215.966 L 473.500 215.976 468.457 214.633 L 463.414 213.290 454.957 209.266 L 446.500 205.243 434 199.225 L 421.500 193.207 415 191.734 L 408.500 190.260 404.396 186.309 L 400.291 182.357 395.896 180.327 L 391.500 178.297 385.185 177.085 L 378.870 175.874 370.895 176.570 L 362.919 177.265 359.435 173.195 L 355.952 169.126 350.226 166.945 L 344.500 164.763 335.500 164.293 L 326.500 163.822 313.500 165.561 L 300.500 167.300 292.490 167.717 L 284.481 168.133 281.871 167.141 L 279.262 166.149 278.788 163.670 L 278.314 161.191 279.169 159.662 L 280.025 158.133 279.262 157.671 L 278.500 157.209 269.985 162.854 M 211.630 356.250 L 211.027 358.500 211.014 360.250 L 211 362 212.393 362 L 213.786 362 214.393 360.418 L 215 358.836 215 356.418 L 215 354 213.617 354 L 212.233 354 211.630 356.250 M 217.775 365.962 L 215.281 367.924 214.005 372.481 L 212.729 377.039 213.237 383.358 L 213.744 389.677 216.814 396.110 L 219.884 402.542 222.602 405.021 L 225.320 407.500 224.540 405.500 L 223.760 403.500 222.380 399.091 L 221 394.682 221 391.341 L 221 388 222.958 386.042 L 224.916 384.084 229.874 384.672 L 234.833 385.259 237.450 384.602 L 240.068 383.945 241.161 381.546 L 242.254 379.147 240.131 375.713 L 238.009 372.278 234.254 369.685 L 230.500 367.093 226.782 365.546 L 223.064 364 221.667 364 L 220.270 364 217.775 365.962 M 274.108 381.383 L 274.715 382.048 282.108 384.104 L 289.500 386.159 298.116 388.471 L 306.732 390.784 308.059 389.964 L 309.386 389.143 308.302 386.762 L 307.217 384.382 294.858 383.123 L 282.500 381.864 278 381.291 L 273.500 380.718 274.108 381.383 M 346 384.054 L 333.500 384.791 325.749 385.036 L 317.997 385.282 316.249 386.580 L 314.500 387.878 316 389.330 L 317.500 390.782 337.500 388.436 L 357.500 386.090 368.500 384.673 L 379.500 383.256 369 383.287 L 358.500 383.317 346 384.054 M 269.736 393.692 L 267.973 394.152 266.486 397.026 L 265 399.901 265.001 405.200 L 265.001 410.500 267.083 416 L 269.166 421.500 271.626 424.739 L 274.085 427.978 277.293 430.984 L 280.500 433.991 281.176 433.995 L 281.852 434 278.426 427.427 L 275 420.855 275 418.082 L 275 415.310 276.829 413.655 L 278.657 412 282.878 412 L 287.099 412 289.928 410.537 L 292.758 409.074 293.351 407.528 L 293.944 405.983 293.047 403.623 L 292.149 401.263 289.492 399.172 L 286.834 397.082 281.379 395.041 L 275.925 393 273.712 393.116 L 271.500 393.232 269.736 393.692 M 308.187 400.146 L 308.500 404.500 309.500 404.250 L 310.500 404 310.500 400.333 L 310.500 396.667 309.187 396.229 L 307.875 395.792 308.187 400.146 M 348.500 420.550 L 336.500 421.851 336.337 421.925 L 336.173 422 332.377 429.750 L 328.580 437.500 322.540 443.544 L 316.500 449.588 311.135 451.294 L 305.770 453 301.567 453 L 297.363 453 291.932 451.412 L 286.500 449.823 281.912 446.912 L 277.325 444 276.662 444 L 276 444 276 445.865 L 276 447.730 273.912 450.385 L 271.823 453.040 268.686 454.662 L 265.549 456.284 270.943 457.665 L 276.337 459.045 279.919 461.208 L 283.500 463.370 289.337 468.185 L 295.175 473 296.087 473 L 297 473 297 474.525 L 297 476.050 299.565 477.025 L 302.130 478 308.482 478 L 314.834 478 319.667 475.936 L 324.500 473.873 331.750 468.330 L 339 462.788 339 461.964 L 339 461.140 335.757 462.070 L 332.513 463 331.757 463 L 331 463 331.039 462.250 L 331.078 461.500 336.289 459.021 L 341.500 456.542 349.055 449.021 L 356.610 441.500 359.147 436 L 361.683 430.500 362.869 425.699 L 364.055 420.897 363.468 419.949 L 362.882 419 361.691 419.125 L 360.500 419.250 348.500 420.550 M 244 470.168 L 240.500 471.157 239.643 471.985 L 238.786 472.814 241.197 474.393 L 243.608 475.973 247.047 474.986 L 250.487 474 255.032 474 L 259.577 474 263.470 475.985 L 267.364 477.970 267.733 477.600 L 268.103 477.230 264.431 474.204 L 260.759 471.177 256.436 470.088 L 252.114 469 249.807 469.090 L 247.500 469.180 244 470.168 M 247.607 479.922 L 244.714 480.500 243.621 482.236 L 242.528 483.972 244.574 486.018 L 246.620 488.064 250.560 488.664 L 254.500 489.265 257.655 491.611 L 260.810 493.957 263.064 497.729 L 265.318 501.500 267.846 504.250 L 270.374 507 266.937 506.994 L 263.500 506.989 259.500 505.886 L 255.500 504.783 251.200 501.892 L 246.900 499 246.450 499 L 246 499 246 500.599 L 246 502.198 247.594 505.556 L 249.187 508.915 251.844 511.604 L 254.500 514.294 258.755 516.196 L 263.010 518.098 271.460 518.694 L 279.910 519.291 281.115 516.647 L 282.319 514.004 281.087 508.500 L 279.856 502.995 276.940 497.248 L 274.025 491.500 274.013 491.133 L 274 490.767 276 491.290 L 278 491.813 278 491.011 L 278 490.208 273.098 487.063 L 268.197 483.918 262.848 482.086 L 257.500 480.255 254 479.799 L 250.500 479.343 247.607 479.922" stroke="none" fill="#dfe1e4" fill-rule="evenodd"/><path d="M 0 368.001 L 0 736.003 368.250 735.751 L 736.500 735.500 736.751 367.750 L 737.003 0 368.501 0 L 0 0 0 368.001 M 0.495 368.500 L 0.495 736.500 0.750 552.169 L 1.005 367.837 0.750 184.169 L 0.495 0.500 0.495 368.500 M 269.985 162.854 L 261.469 168.500 254.485 173.764 L 247.500 179.028 239.165 187.264 L 230.830 195.500 225.585 203.500 L 220.339 211.500 217.621 217.734 L 214.902 223.968 213.468 230.734 L 212.035 237.500 212.017 242.418 L 212 247.336 213.104 253.676 L 214.208 260.016 216.952 267.372 L 219.696 274.727 225.248 283.114 L 230.799 291.500 233.400 294.406 L 236 297.311 235.976 298.406 L 235.953 299.500 233.976 306.932 L 232 314.365 232 318.051 L 232 321.736 226.194 323.366 L 220.387 324.995 209.944 326.479 L 199.500 327.963 195.285 327.982 L 191.070 328 189.868 330.246 L 188.666 332.492 188.610 352.496 L 188.554 372.500 190.374 380.500 L 192.195 388.500 194.717 395 L 197.238 401.500 203.737 411.261 L 210.235 421.021 210.178 425.198 L 210.120 429.376 206.955 433.866 L 203.790 438.356 204.977 442.428 L 206.165 446.500 212.477 452.599 L 218.788 458.697 218.263 463.360 L 217.737 468.023 219.449 472.504 L 221.160 476.986 220.224 480.243 L 219.287 483.500 219.436 503 L 219.585 522.500 222.150 529.500 L 224.715 536.500 227.992 543 L 231.270 549.500 235.855 555.936 L 240.441 562.372 247.034 568.966 L 253.628 575.559 260.237 580.275 L 266.845 584.991 269.261 585.909 L 271.676 586.827 273.692 582.057 L 275.707 577.286 281.155 573.173 L 286.602 569.060 293.375 566.511 L 300.148 563.962 315.324 561.071 L 330.500 558.180 341.500 556.502 L 352.500 554.824 362.500 552.480 L 372.500 550.136 377.500 547.912 L 382.500 545.688 385.738 543.594 L 388.975 541.500 388.988 540.775 L 389 540.050 385.750 540.625 L 382.500 541.201 386.874 538.769 L 391.248 536.338 396.935 530.729 L 402.623 525.121 405.642 518.810 L 408.660 512.500 409.963 506.861 L 411.266 501.222 410.818 490.353 L 410.370 479.484 409.311 477.591 L 408.251 475.698 407.747 488.099 L 407.242 500.500 404.949 506.987 L 402.656 513.474 397.578 518.525 L 392.500 523.576 388 525.688 L 383.500 527.799 383.089 527.406 L 382.679 527.012 384.494 525.006 L 386.310 523 385.205 523 L 384.100 523 379.614 526.028 L 375.127 529.056 367.814 532.375 L 360.500 535.695 354 537.806 L 347.500 539.916 340.500 541.457 L 333.500 542.998 331.250 543.518 L 329 544.038 329 543.180 L 329 542.321 331.629 541.123 L 334.258 539.925 333.709 539.375 L 333.159 538.825 327.829 539.884 L 322.500 540.942 310 542.010 L 297.500 543.077 291.500 544.086 L 285.500 545.095 280.500 546.694 L 275.500 548.293 271.477 551.038 L 267.454 553.784 266.058 556.392 L 264.662 559 263.518 559 L 262.374 559 259.789 556.250 L 257.204 553.500 254.603 549.613 L 252.003 545.726 250.829 541.613 L 249.656 537.500 249.254 539.250 L 248.853 541 248.090 541 L 247.327 541 244.690 535.750 L 242.054 530.500 240.403 524 L 238.753 517.500 239.289 509.500 L 239.825 501.500 241.380 497.218 L 242.934 492.935 240.876 488.987 L 238.818 485.038 239.489 481.063 L 240.161 477.089 238.073 474.848 L 235.986 472.607 235.080 469.328 L 234.175 466.048 234.721 463.774 L 235.267 461.500 238.679 457.028 L 242.090 452.556 241.795 450.040 L 241.500 447.524 237.682 446.908 L 233.864 446.293 232.339 444.767 L 230.813 443.242 233.318 443.720 L 235.823 444.199 237.596 441.350 L 239.369 438.500 241.359 436.250 L 243.349 434 245.674 434 L 248 434 250 432 L 252 430 251.996 425.250 L 251.992 420.500 250.428 411.500 L 248.863 402.500 248.304 397.750 L 247.746 393 246.907 393 L 246.069 393 242.537 404.250 L 239.005 415.500 236.114 420.500 L 233.223 425.500 230.556 428.361 L 227.889 431.223 227.423 430.757 L 226.957 430.291 229.469 424.895 L 231.980 419.500 231.990 418.270 L 232 417.041 228.178 415.091 L 224.357 413.141 220.637 408.602 L 216.918 404.063 214.421 398.418 L 211.925 392.773 210.426 385.648 L 208.927 378.524 208.965 366.512 L 209.002 354.500 209.751 351.284 L 210.500 348.068 221 353.997 L 231.500 359.926 232.309 359.963 L 233.118 360 232.585 359.137 L 232.051 358.274 224.912 353.440 L 217.772 348.606 219.636 347.873 L 221.500 347.141 225.500 347.035 L 229.500 346.930 235.687 345.602 L 241.873 344.274 241.329 348.887 L 240.784 353.500 241.896 357.619 L 243.007 361.739 245.098 364.397 L 247.189 367.056 251.262 369.134 L 255.335 371.212 261.625 370.811 L 267.916 370.411 276.440 366.088 L 284.965 361.766 294.732 362.203 L 304.500 362.640 308.500 364.631 L 312.500 366.623 312.188 367.999 L 311.875 369.375 311.279 372.355 L 310.683 375.336 312.591 374.530 L 314.500 373.725 318.270 372.651 L 322.039 371.576 324.770 372.665 L 327.500 373.754 329.500 374.457 L 331.500 375.161 327.500 371.595 L 323.500 368.030 322.215 368.015 L 320.930 368 318.263 369.747 L 315.596 371.495 316.298 369.747 L 317 368 317.609 366.495 L 318.218 364.989 312.786 362.502 L 307.354 360.015 302.384 359.073 L 297.415 358.131 294.958 358.415 L 292.500 358.700 289.250 359.430 L 286 360.159 286 359.523 L 286 358.888 290.250 357.043 L 294.500 355.199 298.645 354.529 L 302.790 353.860 308.645 354.913 L 314.500 355.965 329.811 363.483 L 345.123 371 347.339 371 L 349.555 371 351.701 369.497 L 353.847 367.994 355.062 364.311 L 356.278 360.628 356.197 354.921 L 356.116 349.214 354.710 345.857 L 353.303 342.500 350.526 339.206 L 347.748 335.912 344.124 334.079 L 340.500 332.246 335.028 331.086 L 329.556 329.926 322.270 326.421 L 314.984 322.917 311.492 319.425 L 308 315.933 308 315.057 L 308 314.181 315.250 312.883 L 322.500 311.585 315 310.885 L 307.500 310.185 301 308.613 L 294.500 307.041 287 304.649 L 279.500 302.258 276.253 301.550 L 273.007 300.843 269.253 302.037 L 265.500 303.231 261.291 307.283 L 257.082 311.335 254.433 317.918 L 251.783 324.500 250.874 326.500 L 249.965 328.500 250.377 322 L 250.789 315.500 252.386 310.890 L 253.984 306.280 256.532 301.890 L 259.081 297.500 260.226 295.843 L 261.372 294.187 254.436 286.736 L 247.500 279.284 244.108 272.617 L 240.716 265.950 241.212 265.455 L 241.707 264.959 244.351 268.954 L 246.995 272.950 252.247 277.122 L 257.500 281.294 262.500 283.630 L 267.500 285.966 274.959 287.630 L 282.418 289.294 297.459 288.668 L 312.500 288.042 322.453 285.999 L 332.406 283.957 344.256 279.995 L 356.107 276.033 365.936 270.984 L 375.765 265.935 381.447 261.866 L 387.130 257.797 386.721 257.388 L 386.312 256.979 382.169 258.440 L 378.026 259.902 363.763 263.415 L 349.500 266.928 339.613 268.091 L 329.727 269.254 320.113 268.707 L 310.500 268.159 307 267.088 L 303.500 266.017 300 263.766 L 296.500 261.515 310.500 260.879 L 324.500 260.243 326 259.671 L 327.500 259.099 331.750 258.011 L 336 256.923 336 256.090 L 336 255.258 331.191 254.620 L 326.383 253.982 316.548 251.487 L 306.714 248.993 299.118 245.548 L 291.522 242.103 285.977 238.065 L 280.432 234.028 276.631 229.044 L 272.831 224.060 270.915 219.019 L 269 213.979 269 204.882 L 269 195.786 270.750 196.610 L 272.500 197.434 276.500 197.398 L 280.500 197.361 294 192.258 L 307.500 187.155 315.549 185.935 L 323.598 184.715 329.981 185.840 L 336.364 186.964 337.349 187.949 L 338.334 188.934 336.917 189.326 L 335.500 189.718 331.500 191.014 L 327.500 192.310 324.262 194.405 L 321.025 196.500 321.012 197.120 L 321 197.739 334.250 198.253 L 347.500 198.767 351.500 200.188 L 355.500 201.609 360 200.859 L 364.500 200.109 370 200.648 L 375.500 201.187 381.403 202.660 L 387.305 204.134 392.542 207.484 L 397.779 210.834 398.449 211.917 L 399.118 213 406.309 213.012 L 413.500 213.024 418.500 214.396 L 423.500 215.768 428.500 217.953 L 433.500 220.138 446.320 226.512 L 459.140 232.887 464.748 234.051 L 470.356 235.216 473.928 234.660 L 477.500 234.104 480 233.472 L 482.500 232.840 479.734 235.386 L 476.968 237.931 472.734 239.085 L 468.500 240.239 459.807 239.688 L 451.114 239.137 442.557 236.188 L 434 233.238 434 233.919 L 434 234.600 435.250 235.924 L 436.500 237.248 431.237 236.588 L 425.974 235.928 417.237 233.405 L 408.500 230.882 400.069 227.455 L 391.639 224.028 391.301 224.365 L 390.964 224.703 397.004 230.586 L 403.044 236.469 410.652 241.698 L 418.261 246.927 418.880 247.603 L 419.500 248.278 415.337 247.641 L 411.175 247.004 409.337 246.342 L 407.500 245.680 410 248.426 L 412.500 251.172 419.180 255.616 L 425.860 260.061 435.180 264.450 L 444.500 268.839 452.408 271.398 L 460.315 273.958 469.302 275.609 L 478.289 277.261 486.895 276.768 L 495.500 276.276 501 273.956 L 506.500 271.637 510.384 268.628 L 514.268 265.619 517.619 260.382 L 520.970 255.144 522.735 249.586 L 524.500 244.028 525.284 244.014 L 526.069 244 525.469 249.250 L 524.870 254.500 522.383 261.614 L 519.896 268.728 515.172 274.592 L 510.448 280.456 514.242 287.978 L 518.037 295.500 519.018 300.886 L 520 306.273 520 316.005 L 520 325.738 518.452 334.619 L 516.904 343.500 514.819 350.500 L 512.733 357.500 509.231 367 L 505.728 376.500 498.251 395.500 L 490.773 414.500 485.822 428 L 480.871 441.500 477.481 453.514 L 474.091 465.528 472.926 473.014 L 471.761 480.500 472.265 489.500 L 472.769 498.500 474.849 503.250 L 476.929 508 477.578 508 L 478.227 508 477.718 504.750 L 477.210 501.500 478.124 493.177 L 479.038 484.854 482.140 475.677 L 485.242 466.500 490.543 455.500 L 495.843 444.500 508.553 422.500 L 521.263 400.500 528.073 386.500 L 534.883 372.500 538.002 363.171 L 541.122 353.842 543.104 345.171 L 545.086 336.500 545.661 324 L 546.235 311.500 543.511 299 L 540.786 286.500 540.282 283.236 L 539.778 279.972 540.905 278.614 L 542.032 277.256 544.677 269.878 L 547.323 262.500 547.344 248 L 547.365 233.500 545.161 224.500 L 542.958 215.500 539.444 204.893 L 535.930 194.287 534.612 192.484 L 533.293 190.681 529.688 198.175 L 526.084 205.670 521.086 214.160 L 516.089 222.651 510.795 228.075 L 505.500 233.500 504.949 226.431 L 504.398 219.362 501.359 213.983 L 498.320 208.604 496.718 207.594 L 495.116 206.583 492.886 209.417 L 490.657 212.251 486.579 214.104 L 482.500 215.956 478 215.966 L 473.500 215.976 468.457 214.633 L 463.414 213.290 454.957 209.266 L 446.500 205.243 434 199.225 L 421.500 193.207 415 191.734 L 408.500 190.260 404.396 186.309 L 400.291 182.357 395.896 180.327 L 391.500 178.297 385.185 177.085 L 378.870 175.874 370.895 176.570 L 362.919 177.265 359.435 173.195 L 355.952 169.126 350.226 166.945 L 344.500 164.763 335.500 164.293 L 326.500 163.822 313.500 165.561 L 300.500 167.300 292.490 167.717 L 284.481 168.133 281.871 167.141 L 279.262 166.149 278.788 163.670 L 278.314 161.191 279.169 159.662 L 280.025 158.133 279.262 157.671 L 278.500 157.209 269.985 162.854 M 211.630 356.250 L 211.027 358.500 211.014 360.250 L 211 362 212.393 362 L 213.786 362 214.393 360.418 L 215 358.836 215 356.418 L 215 354 213.617 354 L 212.233 354 211.630 356.250 M 217.775 365.962 L 215.281 367.924 214.005 372.481 L 212.729 377.039 213.237 383.358 L 213.744 389.677 216.814 396.110 L 219.884 402.542 222.602 405.021 L 225.320 407.500 224.540 405.500 L 223.760 403.500 222.380 399.091 L 221 394.682 221 391.341 L 221 388 222.958 386.042 L 224.916 384.084 229.874 384.672 L 234.833 385.259 237.450 384.602 L 240.068 383.945 241.161 381.546 L 242.254 379.147 240.131 375.713 L 238.009 372.278 234.254 369.685 L 230.500 367.093 226.782 365.546 L 223.064 364 221.667 364 L 220.270 364 217.775 365.962 M 274.108 381.383 L 274.715 382.048 282.108 384.104 L 289.500 386.159 298.116 388.471 L 306.732 390.784 308.059 389.964 L 309.386 389.143 308.302 386.762 L 307.217 384.382 294.858 383.123 L 282.500 381.864 278 381.291 L 273.500 380.718 274.108 381.383 M 346 384.054 L 333.500 384.791 325.749 385.036 L 317.997 385.282 316.249 386.580 L 314.500 387.878 316 389.330 L 317.500 390.782 337.500 388.436 L 357.500 386.090 368.500 384.673 L 379.500 383.256 369 383.287 L 358.500 383.317 346 384.054 M 269.736 393.692 L 267.973 394.152 266.486 397.026 L 265 399.901 265.001 405.200 L 265.001 410.500 267.083 416 L 269.166 421.500 271.626 424.739 L 274.085 427.978 277.293 430.984 L 280.500 433.991 281.176 433.995 L 281.852 434 278.426 427.427 L 275 420.855 275 418.082 L 275 415.310 276.829 413.655 L 278.657 412 282.878 412 L 287.099 412 289.928 410.537 L 292.758 409.074 293.351 407.528 L 293.944 405.983 293.047 403.623 L 292.149 401.263 289.492 399.172 L 286.834 397.082 281.379 395.041 L 275.925 393 273.712 393.116 L 271.500 393.232 269.736 393.692 M 308.187 400.146 L 308.500 404.500 309.500 404.250 L 310.500 404 310.500 400.333 L 310.500 396.667 309.187 396.229 L 307.875 395.792 308.187 400.146 M 348.500 420.550 L 336.500 421.851 336.337 421.925 L 336.173 422 332.377 429.750 L 328.580 437.500 322.540 443.544 L 316.500 449.588 311.135 451.294 L 305.770 453 301.567 453 L 297.363 453 291.932 451.412 L 286.500 449.823 281.912 446.912 L 277.325 444 276.662 444 L 276 444 276 445.865 L 276 447.730 273.912 450.385 L 271.823 453.040 268.686 454.662 L 265.549 456.284 270.943 457.665 L 276.337 459.045 279.919 461.208 L 283.500 463.370 289.337 468.185 L 295.175 473 296.087 473 L 297 473 297 474.525 L 297 476.050 299.565 477.025 L 302.130 478 308.482 478 L 314.834 478 319.667 475.936 L 324.500 473.873 331.750 468.330 L 339 462.788 339 461.964 L 339 461.140 335.757 462.070 L 332.513 463 331.757 463 L 331 463 331.039 462.250 L 331.078 461.500 336.289 459.021 L 341.500 456.542 349.055 449.021 L 356.610 441.500 359.147 436 L 361.683 430.500 362.869 425.699 L 364.055 420.897 363.468 419.949 L 362.882 419 361.691 419.125 L 360.500 419.250 348.500 420.550 M 244 470.168 L 240.500 471.157 239.643 471.985 L 238.786 472.814 241.197 474.393 L 243.608 475.973 247.047 474.986 L 250.487 474 255.032 474 L 259.577 474 263.470 475.985 L 267.364 477.970 267.733 477.600 L 268.103 477.230 264.431 474.204 L 260.759 471.177 256.436 470.088 L 252.114 469 249.807 469.090 L 247.500 469.180 244 470.168 M 247.607 479.922 L 244.714 480.500 243.621 482.236 L 242.528 483.972 244.574 486.018 L 246.620 488.064 250.560 488.664 L 254.500 489.265 257.655 491.611 L 260.810 493.957 263.064 497.729 L 265.318 501.500 267.846 504.250 L 270.374 507 266.937 506.994 L 263.500 506.989 259.500 505.886 L 255.500 504.783 251.200 501.892 L 246.900 499 246.450 499 L 246 499 246 500.599 L 246 502.198 247.594 505.556 L 249.187 508.915 251.844 511.604 L 254.500 514.294 258.755 516.196 L 263.010 518.098 271.460 518.694 L 279.910 519.291 281.115 516.647 L 282.319 514.004 281.087 508.500 L 279.856 502.995 276.940 497.248 L 274.025 491.500 274.013 491.133 L 274 490.767 276 491.290 L 278 491.813 278 491.011 L 278 490.208 273.098 487.063 L 268.197 483.918 262.848 482.086 L 257.500 480.255 254 479.799 L 250.500 479.343 247.607 479.922" stroke="none" fill="#05051d" fill-rule="evenodd"/></svg>